<?xml version="1.0" encoding="UTF-8" standalone="no"?>
<svg
   xmlns:dc="http://purl.org/dc/elements/1.1/"
   xmlns:cc="http://creativecommons.org/ns#"
   xmlns:rdf="http://www.w3.org/1999/02/22-rdf-syntax-ns#"
   xmlns:svg="http://www.w3.org/2000/svg"
   xmlns="http://www.w3.org/2000/svg"
   xmlns:sodipodi="http://sodipodi.sourceforge.net/DTD/sodipodi-0.dtd"
   xmlns:inkscape="http://www.inkscape.org/namespaces/inkscape"
   inkscape:version="1.0 (6e3e5246a0, 2020-05-07)"
   sodipodi:docname="ar-camera.svg"
   version="1.1"
   width="512"
   viewBox="0 0 512 512"
   height="512"
   enable-background="new 0 0 512 512"
   id="Capa_1">
  <metadata
     id="metadata23">
    <rdf:RDF>
      <cc:Work
         rdf:about="">
        <dc:format>image/svg+xml</dc:format>
        <dc:type
           rdf:resource="http://purl.org/dc/dcmitype/StillImage" />
      </cc:Work>
    </rdf:RDF>
  </metadata>
  <defs
     id="defs21" />
  <sodipodi:namedview
     inkscape:current-layer="Capa_1"
     inkscape:window-maximized="0"
     inkscape:window-y="27"
     inkscape:window-x="72"
     inkscape:cy="256"
     inkscape:cx="256"
     inkscape:zoom="1.6992188"
     showgrid="false"
     id="namedview19"
     inkscape:window-height="480"
     inkscape:window-width="810"
     inkscape:pageshadow="2"
     inkscape:pageopacity="0"
     guidetolerance="10"
     gridtolerance="10"
     objecttolerance="10"
     borderopacity="1"
     bordercolor="#666666"
     pagecolor="#ffffff" />
  <g
     style="fill:#ffffff"
     id="g16">
    <path
       style="fill:#ffffff"
       id="path2"
       d="m457 101h-100.188l-9.743-29.23c-6.136-18.405-23.293-30.77-42.692-30.77h-96.754c-19.399 0-36.556 12.365-42.691 30.77l-9.744 29.23h-24.188v-25c0-19.299-15.701-35-35-35h-20c-19.299 0-35 15.701-35 35v26.812c-23.568 6.208-41 27.698-41 53.188v260c0 30.327 24.673 55 55 55h402c30.327 0 55-24.673 55-55v-260c0-30.327-24.673-55-55-55zm-386-25c0-2.757 2.243-5 5-5h20c2.757 0 5 2.243 5 5v25h-30zm411 340c0 13.785-11.215 25-25 25h-402c-13.785 0-25-11.215-25-25v-260c0-13.785 11.215-25 25-25h111c6.456 0 12.188-4.131 14.23-10.257l13.162-39.486c2.046-6.135 7.764-10.257 14.231-10.257h96.754c6.467 0 12.186 4.122 14.23 10.256l13.162 39.487c2.043 6.126 7.775 10.257 14.231 10.257h111c13.785 0 25 11.215 25 25z" />
    <circle
       style="fill:#ffffff"
       id="circle4"
       r="15"
       cy="176"
       cx="436" />
    <path
       style="fill:#ffffff"
       id="path6"
       d="m106 161h-30c-8.284 0-15 6.716-15 15s6.716 15 15 15h30c8.284 0 15-6.716 15-15s-6.716-15-15-15z" />
    <g
       style="fill:#ffffff"
       id="g10">
      <path
         style="fill:#ffffff"
         id="path8"
         d="m256 411c-74.439 0-135-60.561-135-135s60.561-135 135-135 135 60.561 135 135-60.561 135-135 135zm0-240c-57.897 0-105 47.103-105 105s47.103 105 105 105 105-47.103 105-105-47.103-105-105-105z" />
    </g>
    <g
       style="fill:#ffffff"
       id="g14">
      <path
         style="fill:#ffffff"
         id="path12"
         d="m256 351c-41.355 0-75-33.645-75-75s33.645-75 75-75 75 33.645 75 75-33.645 75-75 75zm0-120c-24.813 0-45 20.187-45 45s20.187 45 45 45 45-20.187 45-45-20.187-45-45-45z" />
    </g>
  </g>
</svg>
