<?xml version="1.0" encoding="UTF-8" standalone="no"?>
<svg
   xmlns:dc="http://purl.org/dc/elements/1.1/"
   xmlns:cc="http://creativecommons.org/ns#"
   xmlns:rdf="http://www.w3.org/1999/02/22-rdf-syntax-ns#"
   xmlns:svg="http://www.w3.org/2000/svg"
   xmlns="http://www.w3.org/2000/svg"
   xmlns:sodipodi="http://sodipodi.sourceforge.net/DTD/sodipodi-0.dtd"
   xmlns:inkscape="http://www.inkscape.org/namespaces/inkscape"
   inkscape:version="1.0 (6e3e5246a0, 2020-05-07)"
   sodipodi:docname="trash.svg"
   xml:space="preserve"
   style="enable-background:new 0 0 486.4 486.4;"
   viewBox="0 0 486.4 486.4"
   y="0px"
   x="0px"
   id="Capa_1"
   version="1.1"><metadata
   id="metadata49"><rdf:RDF><cc:Work
       rdf:about=""><dc:format>image/svg+xml</dc:format><dc:type
         rdf:resource="http://purl.org/dc/dcmitype/StillImage" /></cc:Work></rdf:RDF></metadata><defs
   id="defs47" /><sodipodi:namedview
   inkscape:current-layer="Capa_1"
   inkscape:window-maximized="0"
   inkscape:window-y="27"
   inkscape:window-x="72"
   inkscape:cy="243.2"
   inkscape:cx="243.2"
   inkscape:zoom="1.7886513"
   showgrid="false"
   id="namedview45"
   inkscape:window-height="480"
   inkscape:window-width="810"
   inkscape:pageshadow="2"
   inkscape:pageopacity="0"
   guidetolerance="10"
   gridtolerance="10"
   objecttolerance="10"
   borderopacity="1"
   bordercolor="#666666"
   pagecolor="#ffffff" />
<g
   style="fill:#ffffff"
   id="g12">
	<g
   style="fill:#ffffff"
   id="g10">
		<path
   style="fill:#ffffff"
   id="path2"
   d="M446,70H344.8V53.5c0-29.5-24-53.5-53.5-53.5h-96.2c-29.5,0-53.5,24-53.5,53.5V70H40.4c-7.5,0-13.5,6-13.5,13.5    S32.9,97,40.4,97h24.4v317.2c0,39.8,32.4,72.2,72.2,72.2h212.4c39.8,0,72.2-32.4,72.2-72.2V97H446c7.5,0,13.5-6,13.5-13.5    S453.5,70,446,70z M168.6,53.5c0-14.6,11.9-26.5,26.5-26.5h96.2c14.6,0,26.5,11.9,26.5,26.5V70H168.6V53.5z M394.6,414.2    c0,24.9-20.3,45.2-45.2,45.2H137c-24.9,0-45.2-20.3-45.2-45.2V97h302.9v317.2H394.6z" />
		<path
   style="fill:#ffffff"
   id="path4"
   d="M243.2,411c7.5,0,13.5-6,13.5-13.5V158.9c0-7.5-6-13.5-13.5-13.5s-13.5,6-13.5,13.5v238.5    C229.7,404.9,235.7,411,243.2,411z" />
		<path
   style="fill:#ffffff"
   id="path6"
   d="M155.1,396.1c7.5,0,13.5-6,13.5-13.5V173.7c0-7.5-6-13.5-13.5-13.5s-13.5,6-13.5,13.5v208.9    C141.6,390.1,147.7,396.1,155.1,396.1z" />
		<path
   style="fill:#ffffff"
   id="path8"
   d="M331.3,396.1c7.5,0,13.5-6,13.5-13.5V173.7c0-7.5-6-13.5-13.5-13.5s-13.5,6-13.5,13.5v208.9    C317.8,390.1,323.8,396.1,331.3,396.1z" />
	</g>
</g>
<g
   id="g14">
</g>
<g
   id="g16">
</g>
<g
   id="g18">
</g>
<g
   id="g20">
</g>
<g
   id="g22">
</g>
<g
   id="g24">
</g>
<g
   id="g26">
</g>
<g
   id="g28">
</g>
<g
   id="g30">
</g>
<g
   id="g32">
</g>
<g
   id="g34">
</g>
<g
   id="g36">
</g>
<g
   id="g38">
</g>
<g
   id="g40">
</g>
<g
   id="g42">
</g>
</svg>
